# vtk DataFile Version 3.0
AERIS surface mesh v3
ASCII
DATASET STRUCTURED_GRID
DIMENSIONS 49 9 1
POINTS 441 double
4.7689435374e-01 9.9963645253e-01 4.4454625479e-02
4.7638009764e-01 9.9964543445e-01 4.4348525856e-02
4.7586578116e-01 9.9965439175e-01 4.4242717145e-02
4.7535136282e-01 9.9966330731e-01 4.4137401391e-02
4.7483683068e-01 9.9967217598e-01 4.4032639578e-02
4.7432216378e-01 9.9968098879e-01 4.3928537558e-02
4.7380734164e-01 9.9968973689e-01 4.3825199965e-02
4.7329229281e-01 9.9969838958e-01 4.3722989397e-02
4.7277700392e-01 9.9970693982e-01 4.3621989011e-02
4.7226147978e-01 9.9971538838e-01 4.3522189733e-02
4.7174571364e-01 9.9972373123e-01 4.3423639174e-02
4.7122970672e-01 9.9973196773e-01 4.3326344965e-02
4.7071348230e-01 9.9974010668e-01 4.3230203040e-02
4.7019709826e-01 9.9974817313e-01 4.3134917480e-02
4.6968055243e-01 9.9975616548e-01 4.3040507228e-02
4.6916384081e-01 9.9976408126e-01 4.2947001438e-02
4.6864693501e-01 9.9977190644e-01 4.2854565918e-02
4.6812980798e-01 9.9977962683e-01 4.2763368252e-02
4.6761249896e-01 9.9978725981e-01 4.2673203020e-02
4.6709500473e-01 9.9979480293e-01 4.2584099431e-02
4.6657732214e-01 9.9980225369e-01 4.2496086725e-02
4.6605938570e-01 9.9980957792e-01 4.2409568698e-02
4.6554123607e-01 9.9981679381e-01 4.2324330496e-02
4.6502288040e-01 9.9982390345e-01 4.2240347283e-02
4.6450431379e-01 9.9983090290e-01 4.2157665709e-02
4.6398551039e-01 9.9983777668e-01 4.2076468734e-02
4.6346645890e-01 9.9984451574e-01 4.1996862999e-02
4.6294723290e-01 9.9985115827e-01 4.1918397683e-02
4.6242784413e-01 9.9985770968e-01 4.1841008635e-02
4.6190830411e-01 9.9986417540e-01 4.1764631851e-02
4.6138858898e-01 9.9987054025e-01 4.1689446505e-02
4.6086874555e-01 9.9987682999e-01 4.1615148554e-02
4.6034879687e-01 9.9988305750e-01 4.1541585642e-02
4.5982875292e-01 9.9988922821e-01 4.1468693630e-02
4.5930861745e-01 9.9989534386e-01 4.1396452020e-02
4.5878839237e-01 9.9990140502e-01 4.1324854076e-02
4.5826806850e-01 9.9990740541e-01 4.1253974020e-02
4.5774763289e-01 9.9991333637e-01 4.1183914138e-02
4.5722707771e-01 9.9991919234e-01 4.1114740036e-02
4.5670638468e-01 9.9992496052e-01 4.1046603012e-02
4.5618557975e-01 9.9993065625e-01 4.0979321688e-02
4.5566468350e-01 9.9993629222e-01 4.0912746470e-02
4.5514370208e-01 9.9994187194e-01 4.0846835591e-02
4.5462264070e-01 9.9994739837e-01 4.0781554201e-02
4.5410148500e-01 9.9995286114e-01 4.0717024814e-02
4.5358026925e-01 9.9995828294e-01 4.0652979376e-02
4.5305899905e-01 9.9996366737e-01 4.0589375380e-02
4.5253767950e-01 9.9996901772e-01 4.0526173933e-02
4.5201631060e-01 9.9997433377e-01 4.0463377713e-02
4.8953161044e-01 9.9941093024e-01 4.7118624664e-02
4.8756542444e-01 9.9942451287e-01 4.6958178792e-02
4.8573761870e-01 9.9943752991e-01 4.6804414002e-02
4.8403752960e-01 9.9945001124e-01 4.6656977366e-02
4.8245512375e-01 9.9946200160e-01 4.6515340299e-02
4.8098094544e-01 9.9947352424e-01 4.6379228279e-02
4.7960609092e-01 9.9948460810e-01 4.6248299285e-02
4.7832214032e-01 9.9949526102e-01 4.6122460948e-02
4.7712122642e-01 9.9950551534e-01 4.6001331017e-02
4.7599597444e-01 9.9951540001e-01 4.5884567553e-02
4.7493944679e-01 9.9952493801e-01 4.5771899180e-02
4.7394513346e-01 9.9953415787e-01 4.5662988970e-02
4.7300693765e-01 9.9954309770e-01 4.5557386530e-02
4.7211915963e-01 9.9955181134e-01 4.5454455982e-02
4.7127638341e-01 9.9956031870e-01 4.5353962169e-02
4.7047350230e-01 9.9956864575e-01 4.5255598186e-02
4.6970567059e-01 9.9957680901e-01 4.5159169055e-02
4.6896830173e-01 9.9958483639e-01 4.5064345081e-02
4.6825708792e-01 9.9959276766e-01 4.4970656304e-02
4.6756788258e-01 9.9960063175e-01 4.4877761148e-02
4.6689670854e-01 9.9960846032e-01 4.4785285568e-02
4.6623967735e-01 9.9961626429e-01 4.4693100552e-02
4.6559310188e-01 9.9962409581e-01 4.4600590168e-02
4.6495334792e-01 9.9963199506e-01 4.4507279704e-02
4.6431682707e-01 9.9964000354e-01 4.4412678881e-02
4.6367996020e-01 9.9964815860e-01 4.4316346644e-02
4.6303917822e-01 9.9965650685e-01 4.4217732356e-02
4.6239095064e-01 9.9966513521e-01 4.4115809169e-02
4.6173163669e-01 9.9967411243e-01 4.4009765014e-02
4.6105750742e-01 9.9968351354e-01 4.3898713783e-02
4.6036469016e-01 9.9969340602e-01 4.3781858096e-02
4.5964921596e-01 9.9970388571e-01 4.3658065891e-02
4.5890692642e-01 9.9971505121e-01 4.3526172581e-02
4.5813344863e-01 9.9972700185e-01 4.3385004803e-02
4.5732417813e-01 9.9973984648e-01 4.3233276632e-02
4.5647423997e-01 9.9975369232e-01 4.3069721528e-02
4.5557846328e-01 9.9976865161e-01 4.2893013829e-02
4.5463135918e-01 9.9978484529e-01 4.2701724758e-02
4.5362710212e-01 9.9980240938e-01 4.2494247573e-02
4.5255948424e-01 9.9982148278e-01 4.2268941675e-02
4.5142193103e-01 9.9984223548e-01 4.2023798811e-02
4.5020743916e-01 9.9986484948e-01 4.1756669236e-02
4.4890853812e-01 9.9988951092e-01 4.1465354087e-02
4.4751728117e-01 9.9991642261e-01 4.1147457674e-02
4.4602518012e-01 9.9994577746e-01 4.0800701340e-02
4.4442326124e-01 9.9997781669e-01 4.0422235448e-02
4.4270196344e-01 1.0000127789e+00 4.0009241785e-02
4.4085114256e-01 1.0000509206e+00 3.9558689422e-02
4.3886002830e-01 1.0000925053e+00 3.9067467470e-02
5.0221333923e-01 9.9920424668e-01 4.9560089825e-02
4.9879018241e-01 9.9922029465e-01 4.9370521981e-02
4.9564432754e-01 9.9923543984e-01 4.9191618286e-02
4.9275445193e-01 9.9924974347e-01 4.9022655635e-02
4.9010046591e-01 9.9926328543e-01 4.8862690184e-02
4.8766344623e-01 9.9927610726e-01 4.8711231321e-02
4.8542557500e-01 9.9928826263e-01 4.8567645129e-02
4.8337005493e-01 9.9929978552e-01 4.8431530019e-02
4.8148113767e-01 9.9931073609e-01 4.8302175586e-02
4.7974404327e-01 9.9932116052e-01 4.8179036322e-02
4.7814487929e-01 9.9933109845e-01 4.8061643752e-02
4.7667060197e-01 9.9934059784e-01 4.7949431428e-02
4.7530897330e-01 9.9934971694e-01 4.7841711394e-02
4.7404851616e-01 9.9935852963e-01 4.7737610870e-02
4.7287838215e-01 9.9936706903e-01 4.7636738555e-02
4.7178834443e-01 9.9937538166e-01 4.7538544924e-02
4.7076872355e-01 9.9938350700e-01 4.7442563749e-02
4.6981035802e-01 9.9939150775e-01 4.7348054305e-02
4.6890457838e-01 9.9939943901e-01 4.7254365680e-02
4.6804308087e-01 9.9940735418e-01 4.7160867061e-02
4.6721790115e-01 9.9941531230e-01 4.7066861273e-02
4.6642131522e-01 9.9942336265e-01 4.6971765906e-02
4.6564589614e-01 9.9943158462e-01 4.6874643259e-02
4.6488435667e-01 9.9944004972e-01 4.6774648613e-02
4.6412951356e-01 9.9944883804e-01 4.6670835860e-02
4.6337422332e-01 9.9945803273e-01 4.6562222928e-02
4.6261134809e-01 9.9946772879e-01 4.6447687471e-02
4.6183374242e-01 9.9947805440e-01 4.6325715440e-02
4.6103410211e-01 9.9948913376e-01 4.6194839618e-02
4.6020494662e-01 9.9950110324e-01 4.6053449204e-02
4.5933854323e-01 9.9951410432e-01 4.5899873002e-02
4.5842689563e-01 9.9952829371e-01 4.5732259707e-02
4.5746165204e-01 9.9954384593e-01 4.5548548015e-02
4.5643404424e-01 9.9956094378e-01 4.5346578311e-02
4.5533484652e-01 9.9957979216e-01 4.5123930375e-02
4.5415429347e-01 9.9960059309e-01 4.4878217873e-02
4.5288203816e-01 9.9962356462e-01 4.4606864880e-02
4.5150710064e-01 9.9964894379e-01 4.4307071499e-02
4.5001782154e-01 9.9967699372e-01 4.3975729636e-02
4.4840178641e-01 9.9970798950e-01 4.3609589570e-02
4.4664580216e-01 9.9974223928e-01 4.3205011468e-02
4.4473582233e-01 9.9978007671e-01 4.2758053965e-02
4.4265687930e-01 9.9982185171e-01 4.2264583621e-02
4.4039305260e-01 9.9986794686e-01 4.1720081132e-02
4.3792735713e-01 9.9991873695e-01 4.1120119351e-02
4.3524178654e-01 9.9997465900e-01 4.0459535925e-02
4.3231718697e-01 1.0000361624e+00 3.9733022720e-02
4.2913323727e-01 1.0001037312e+00 3.8934860211e-02
4.2566836750e-01 1.0001778653e+00 3.8059145767e-02
5.1502021748e-01 9.9906540249e-01 5.1200197331e-02
5.1012590412e-01 9.9907622619e-01 5.1072341570e-02
5.0564916811e-01 9.9908654373e-01 5.0950464897e-02
5.0155792381e-01 9.9909639132e-01 5.0834139436e-02
4.9782192726e-01 9.9910583092e-01 5.0722633529e-02
4.9441269546e-01 9.9911487230e-01 5.0615831507e-02
4.9130340961e-01 9.9912354676e-01 5.0513363761e-02
4.8846881350e-01 9.9913187021e-01 5.0415042435e-02
4.8588520125e-01 9.9913988896e-01 5.0320320276e-02
4.8353031609e-01 9.9914762739e-01 5.0228909478e-02
4.8138324374e-01 9.9915510520e-01 5.0140577325e-02
4.7942434410e-01 9.9916235539e-01 5.0054933909e-02
4.7763517951e-01 9.9916942407e-01 4.9971434619e-02
4.7599844101e-01 9.9917637492e-01 4.9889327156e-02
4.7449779707e-01 9.9918322589e-01 4.9808399580e-02
4.7311785357e-01 9.9919001734e-01 4.9728175015e-02
4.7184405353e-01 9.9919678660e-01 4.9648212668e-02
4.7066261986e-01 9.9920360747e-01 4.9567640526e-02
4.6956048374e-01 9.9921052801e-01 4.9485891176e-02
4.6852514930e-01 9.9921760486e-01 4.9402295385e-02
4.6754463263e-01 9.9922490417e-01 4.9316071672e-02
4.6660734416e-01 9.9923249430e-01 4.9226412706e-02
4.6570208931e-01 9.9924046326e-01 4.9132278810e-02
4.6481790195e-01 9.9924889586e-01 4.9032667995e-02
4.6394397998e-01 9.9925789325e-01 4.8926385651e-02
4.6306959312e-01 9.9926756713e-01 4.8812112251e-02
4.6218401384e-01 9.9927804385e-01 4.8688355163e-02
4.6127646205e-01 9.9928947583e-01 4.8553314060e-02
4.6033595155e-01 9.9930202563e-01 4.8405068616e-02
4.5935123269e-01 9.9931587362e-01 4.8241488114e-02
4.5831069583e-01 9.9933121756e-01 4.8060236675e-02
4.5720230117e-01 9.9934825685e-01 4.7858958841e-02
4.5601348778e-01 9.9936722304e-01 4.7634919239e-02
4.5473107674e-01 9.9938836284e-01 4.7385203790e-02
4.5334120589e-01 9.9941195662e-01 4.7106500500e-02
4.5182920411e-01 9.9943827962e-01 4.6795558067e-02
4.5017953308e-01 9.9946763300e-01 4.6448818979e-02
4.4837570618e-01 9.9950034582e-01 4.6062396319e-02
4.4640021423e-01 9.9953678280e-01 4.5631981685e-02
4.4423441965e-01 9.9957732823e-01 4.5153035755e-02
4.4185849362e-01 9.9962239961e-01 4.4620626628e-02
4.3925132858e-01 9.9967245172e-01 4.4029382320e-02
4.3639044099e-01 9.9972796574e-01 4.3373618771e-02
4.3325191682e-01 9.9978946945e-01 4.2647101465e-02
4.2981025309e-01 9.9985748277e-01 4.1843689038e-02
4.2603838870e-01 9.9993259941e-01 4.0956367989e-02
4.2190755355e-01 1.0000154380e+00 3.9977830540e-02
4.1738722467e-01 1.0001066664e+00 3.8900188921e-02
4.1244500612e-01 1.0002069737e+00 3.7715300530e-02
5.2627502278e-01 9.9903551982e-01 5.1553188663e-02
5.2008548067e-01 9.9902876844e-01 5.1632939869e-02
5.1443700286e-01 9.9902308612e-01 5.1700062658e-02
5.0928802962e-01 9.9901839360e-01 5.1755493435e-02
5.0459937837e-01 9.9901464945e-01 5.1799721535e-02
5.0033415201e-01 9.9901175114e-01 5.1833957989e-02
4.9645760998e-01 9.9900963157e-01 5.1858995611e-02
4.9293705317e-01 9.9900821674e-01 5.1875708367e-02
4.8974177471e-01 9.9900747129e-01 5.1884514018e-02
4.8684294178e-01 9.9900733347e-01 5.1886142059e-02
4.8421346687e-01 9.9900774194e-01 5.1881317000e-02
4.8182791385e-01 9.9900865655e-01 5.1870513108e-02
4.7966240134e-01 9.9901005555e-01 5.1853987333e-02
4.7769450399e-01 9.9901193880e-01 5.1831741256e-02
4.7590308608e-01 9.9901425715e-01 5.1804355579e-02
4.7426823271e-01 9.9901699419e-01 5.1772024093e-02
4.7277112752e-01 9.9902013533e-01 5.1734919169e-02
4.7139397183e-01 9.9902371618e-01 5.1692620057e-02
4.7011987144e-01 9.9902772840e-01 5.1645225421e-02
4.6893269664e-01 9.9903218212e-01 5.1592615577e-02
4.6781699078e-01 9.9903709993e-01 5.1534523537e-02
4.6675783847e-01 9.9904251715e-01 5.1470532256e-02
4.6574081447e-01 9.9904847646e-01 5.1400137363e-02
4.6475181246e-01 9.9905501971e-01 5.1322844755e-02
4.6377695634e-01 9.9906220989e-01 5.1237910230e-02
4.6280248453e-01 9.9907012474e-01 5.1144415458e-02
4.6181465043e-01 9.9907885556e-01 5.1041282013e-02
4.6079962970e-01 9.9908850817e-01 5.0927259804e-02
4.5974336877e-01 9.9909920775e-01 5.0800870220e-02
4.5863149243e-01 9.9911109746e-01 5.0660422134e-02
4.5744919124e-01 9.9912434406e-01 5.0503945640e-02
4.5618109724e-01 9.9913909581e-01 5.0329689488e-02
4.5481119861e-01 9.9915554036e-01 5.0135436951e-02
4.5332271162e-01 9.9917387960e-01 4.9918803279e-02
4.5169799586e-01 9.9919435243e-01 4.9676966390e-02
4.4991838988e-01 9.9921718149e-01 4.9407296477e-02
4.4796414124e-01 9.9924261572e-01 4.9106852670e-02
4.4581430056e-01 9.9927093085e-01 4.8772378054e-02
4.4344662429e-01 9.9930243720e-01 4.8400206878e-02
4.4083744342e-01 9.9933746094e-01 4.7986486301e-02
4.3796156623e-01 9.9937634979e-01 4.7527108826e-02
4.3479218288e-01 9.9941948795e-01 4.7017536045e-02
4.3130074341e-01 9.9946728307e-01 4.6452952615e-02
4.2745688547e-01 9.9952018955e-01 4.5827990719e-02
4.2322823384e-01 9.9957863946e-01 4.5137546805e-02
4.1858042358e-01 9.9964313520e-01 4.4375685949e-02
4.1347692942e-01 9.9971420100e-01 4.3536215770e-02
4.0787900252e-01 9.9979240812e-01 4.2612388288e-02
4.0174551658e-01 9.9987833845e-01 4.1597329685e-02
5.1388200467e-01 9.9873270938e-01 5.5130160026e-02
5.0907771947e-01 9.9873931933e-01 5.5052079401e-02
5.0468219167e-01 9.9874562137e-01 5.4977636093e-02
5.0066402356e-01 9.9875164730e-01 5.4906454366e-02
4.9699361018e-01 9.9875746585e-01 5.4837722350e-02
4.9364308290e-01 9.9876306305e-01 5.4771604982e-02
4.9058619520e-01 9.9876846199e-01 5.4707829589e-02
4.8779824161e-01 9.9877367549e-01 5.4646244724e-02
4.8525601931e-01 9.9877875161e-01 5.4586282674e-02
4.8293774125e-01 9.9878369632e-01 5.4527872857e-02
4.8082293393e-01 9.9878851013e-01 5.4471009359e-02
4.7889236671e-01 9.9879321188e-01 5.4415469592e-02
4.7712797935e-01 9.9879783363e-01 5.4360874819e-02
4.7551280771e-01 9.9880242284e-01 5.4306664428e-02
4.7403085177e-01 9.9880696460e-01 5.4253014536e-02
4.7266702767e-01 9.9881147720e-01 5.4199709122e-02
4.7140707332e-01 9.9881597588e-01 5.4146568149e-02
4.7023749376e-01 9.9882053020e-01 5.4092769853e-02
4.6914545659e-01 9.9882513810e-01 5.4038338655e-02
4.6811869729e-01 9.9882981649e-01 5.3983074912e-02
4.6714544751e-01 9.9883458838e-01 5.3926706566e-02
4.6621433933e-01 9.9883949078e-01 5.3868796596e-02
4.6531435258e-01 9.9884454658e-01 5.3809074565e-02
4.6443468909e-01 9.9884977092e-01 5.3747361601e-02
4.6356470986e-01 9.9885519578e-01 5.3683280033e-02
4.6269384605e-01 9.9886086280e-01 5.3616337926e-02
4.6181151898e-01 9.9886681680e-01 5.3546005861e-02
4.6090705997e-01 9.9887309627e-01 5.3471829148e-02
4.5996961091e-01 9.9887975881e-01 5.3393127411e-02
4.5898804639e-01 9.9888687066e-01 5.3309118221e-02
4.5795089483e-01 9.9889451822e-01 5.3218780796e-02
4.5684620946e-01 9.9890273944e-01 5.3121666987e-02
4.5566153805e-01 9.9891160895e-01 5.3016895263e-02
4.5438381263e-01 9.9892120454e-01 5.2903546590e-02
4.5299929432e-01 9.9893163404e-01 5.2780347396e-02
4.5149341885e-01 9.9894296726e-01 5.2646472828e-02
4.4985076339e-01 9.9895528997e-01 5.2500909839e-02
4.4805496398e-01 9.9896870248e-01 5.2342473533e-02
4.4608864305e-01 9.9898332728e-01 5.2169717005e-02
4.4393330033e-01 9.9899928732e-01 5.1981187868e-02
4.4156922832e-01 9.9901670344e-01 5.1775458610e-02
4.3897545571e-01 9.9903571986e-01 5.1550825682e-02
4.3612964710e-01 9.9905648857e-01 5.1305493760e-02
4.3300805869e-01 9.9907919539e-01 5.1037267666e-02
4.2958534131e-01 9.9910397581e-01 5.0744547069e-02
4.2583460066e-01 9.9913101830e-01 5.0425105622e-02
4.2172725111e-01 9.9916051562e-01 5.0076666330e-02
4.1723297658e-01 9.9919269062e-01 4.9696596666e-02
4.1231958549e-01 9.9922775053e-01 4.9282448888e-02
5.0122414870e-01 9.9851595673e-01 5.7690567081e-02
4.9783513985e-01 9.9852617336e-01 5.7569882397e-02
4.9471971679e-01 9.9853563596e-01 5.7458104742e-02
4.9185686394e-01 9.9854441598e-01 5.7354389981e-02
4.8922676178e-01 9.9855262505e-01 5.7257419751e-02
4.8681076671e-01 9.9856027453e-01 5.7167059695e-02
4.8459131240e-01 9.9856741846e-01 5.7082671474e-02
4.8255186381e-01 9.9857410114e-01 5.7003731803e-02
4.8067689083e-01 9.9858040260e-01 5.6929295378e-02
4.7895181378e-01 9.9858634891e-01 5.6859054097e-02
4.7736292908e-01 9.9859195861e-01 5.6792789070e-02
4.7589736317e-01 9.9859726955e-01 5.6730053226e-02
4.7454302561e-01 9.9860233144e-01 5.6670259326e-02
4.7328856068e-01 9.9860720701e-01 5.6612666285e-02
4.7212325142e-01 9.9861188717e-01 5.6557381460e-02
4.7103699417e-01 9.9861640042e-01 5.6504068384e-02
4.7002023367e-01 9.9862077132e-01 5.6452436781e-02
4.6906393652e-01 9.9862508696e-01 5.6401457986e-02
4.6815949689e-01 9.9862933927e-01 5.6351227212e-02
4.6729868911e-01 9.9863354390e-01 5.6301559665e-02
4.6647361764e-01 9.9863772065e-01 5.6252221510e-02
4.6567665927e-01 9.9864190902e-01 5.6202746082e-02
4.6490041092e-01 9.9864611754e-01 5.6153032685e-02
4.6413761155e-01 9.9865034485e-01 5.6103097258e-02
4.6338110722e-01 9.9865460701e-01 5.6052750169e-02
4.6262379099e-01 9.9865892976e-01 5.6001687342e-02
4.6185854477e-01 9.9866333690e-01 5.5949627676e-02
4.6107817393e-01 9.9866783049e-01 5.5896546800e-02
4.6027536226e-01 9.9867243711e-01 5.5842130731e-02
4.5944261111e-01 9.9867718850e-01 5.5786004631e-02
4.5857219659e-01 9.9868213922e-01 5.5727523839e-02
4.5765603839e-01 9.9868727173e-01 5.5666895645e-02
4.5668572696e-01 9.9869260902e-01 5.5603848512e-02
4.5565243376e-01 9.9869817302e-01 5.5538123341e-02
4.5454688815e-01 9.9870401576e-01 5.5469105583e-02
4.5335923556e-01 9.9871013692e-01 5.5396798860e-02
4.5207904372e-01 9.9871654939e-01 5.5321051067e-02
4.5069524627e-01 9.9872327634e-01 5.5241588521e-02
4.4919609782e-01 9.9873035894e-01 5.5157924764e-02
4.4756908991e-01 9.9873783205e-01 5.5069648079e-02
4.4580088196e-01 9.9874571367e-01 5.4976545855e-02
4.4387728659e-01 9.9875404131e-01 5.4878174965e-02
4.4178319391e-01 9.9876285419e-01 5.4774072139e-02
4.3950255820e-01 9.9877222243e-01 5.4663409027e-02
4.3701820745e-01 9.9878214818e-01 5.4546160423e-02
4.3431194378e-01 9.9879267990e-01 5.4421753605e-02
4.3136442474e-01 9.9880386402e-01 5.4289640430e-02
4.2815515147e-01 9.9881577163e-01 5.4148980857e-02
4.2466233561e-01 9.9882844389e-01 5.3999288841e-02
4.8846353597e-01 9.9834771618e-01 5.9677921283e-02
4.8650145095e-01 9.9835604062e-01 5.9579588199e-02
4.8467666865e-01 9.9836368967e-01 5.9489233229e-02
4.8297864092e-01 9.9837073418e-01 5.9406019502e-02
4.8139741430e-01 9.9837729069e-01 5.9328570221e-02
4.7992364628e-01 9.9838336026e-01 5.9256872904e-02
4.7854852263e-01 9.9838899447e-01 5.9190318405e-02
4.7726374679e-01 9.9839423784e-01 5.9128380646e-02
4.7606152586e-01 9.9839917329e-01 5.9070080357e-02
4.7493454898e-01 9.9840382002e-01 5.9015190450e-02
4.7387594117e-01 9.9840818975e-01 5.8963572724e-02
4.7287924228e-01 9.9841231655e-01 5.8914824573e-02
4.7193838611e-01 9.9841624711e-01 5.8868394555e-02
4.7104767840e-01 9.9842004084e-01 5.8823580756e-02
4.7020173726e-01 9.9842367799e-01 5.8780616687e-02
4.6939549074e-01 9.9842718284e-01 5.8739215439e-02
4.6862414189e-01 9.9843057702e-01 5.8699121375e-02
4.6788317085e-01 9.9843395503e-01 5.8659218373e-02
4.6716825136e-01 9.9843729489e-01 5.8619766065e-02
4.6647525115e-01 9.9844060527e-01 5.8580661875e-02
4.6580020413e-01 9.9844389931e-01 5.8541750772e-02
4.6513929109e-01 9.9844721791e-01 5.8502549665e-02
4.6448878865e-01 9.9845055645e-01 5.8463112793e-02
4.6384503923e-01 9.9845390081e-01 5.8423607344e-02
4.6320444481e-01 9.9845725729e-01 5.8383958622e-02
4.6256343623e-01 9.9846064451e-01 5.8343946904e-02
4.6191843755e-01 9.9846407664e-01 5.8303404567e-02
4.6126581609e-01 9.9846753348e-01 5.8262570396e-02
4.6060189241e-01 9.9847102757e-01 5.8221296250e-02
4.5992289710e-01 9.9847457602e-01 5.8179379819e-02
4.5922496483e-01 9.9847822451e-01 5.8136281798e-02
4.5850400153e-01 9.9848192604e-01 5.8092557191e-02
4.5775576987e-01 9.9848568125e-01 5.8048198438e-02
4.5697582069e-01 9.9848948887e-01 5.8003220695e-02
4.5615950264e-01 9.9849338125e-01 5.7957241626e-02
4.5530183377e-01 9.9849732770e-01 5.7910623869e-02
4.5439754791e-01 9.9850131170e-01 5.7863562583e-02
4.5344106514e-01 9.9850532665e-01 5.7816135733e-02
4.5242647528e-01 9.9850938381e-01 5.7768210158e-02
4.5134747946e-01 9.9851348553e-01 5.7719758285e-02
4.5019733760e-01 9.9851760687e-01 5.7671074664e-02
4.4896889618e-01 9.9852174305e-01 5.7622215718e-02
4.4765453802e-01 9.9852588960e-01 5.7573234254e-02
4.4624620071e-01 9.9853007486e-01 5.7523795614e-02
4.4473519352e-01 9.9853424654e-01 5.7474517322e-02
4.4311233880e-01 9.9853839728e-01 5.7425486425e-02
4.4136788156e-01 9.9854251664e-01 5.7376826085e-02
4.3949150582e-01 9.9854661913e-01 5.7328365170e-02
4.3747221431e-01 9.9855068072e-01 5.7280387325e-02
4.7560134777e-01 9.9825134277e-01 6.0816339490e-02
4.7507770019e-01 9.9824962887e-01 6.0836585075e-02
4.7455397352e-01 9.9824809559e-01 6.0854697064e-02
4.7403017143e-01 9.9824675350e-01 6.0870550594e-02
4.7350628609e-01 9.9824566788e-01 6.0883374560e-02
4.7298235110e-01 9.9824477659e-01 6.0893903100e-02
4.7245837505e-01 9.9824407905e-01 6.0902142811e-02
4.7193436653e-01 9.9824357353e-01 6.0908114252e-02
4.7141033272e-01 9.9824330236e-01 6.0911317516e-02
4.7088629091e-01 9.9824323741e-01 6.0912084672e-02
4.7036225080e-01 9.9824334600e-01 6.0910802027e-02
4.6983821875e-01 9.9824362369e-01 6.0907521723e-02
4.6931420327e-01 9.9824408220e-01 6.0902105564e-02
4.6879021956e-01 9.9824474840e-01 6.0894236069e-02
4.6826626681e-01 9.9824556528e-01 6.0884586534e-02
4.6774234895e-01 9.9824652904e-01 6.0873202137e-02
4.6721847013e-01 9.9824763704e-01 6.0860113723e-02
4.6669466563e-01 9.9824897244e-01 6.0844339238e-02
4.6617092962e-01 9.9825048312e-01 6.0826494255e-02
4.6564726356e-01 9.9825215710e-01 6.0806720159e-02
4.6512367107e-01 9.9825398967e-01 6.0785072868e-02
4.6460017740e-01 9.9825601440e-01 6.0761155510e-02
4.6407677986e-01 9.9825820741e-01 6.0735250449e-02
4.6355346632e-01 9.9826053803e-01 6.0707719837e-02
4.6303023787e-01 9.9826300166e-01 6.0678618064e-02
4.6250710801e-01 9.9826561107e-01 6.0647794194e-02
4.6198408983e-01 9.9826837470e-01 6.0615148587e-02
4.6146116184e-01 9.9827125647e-01 6.0581107482e-02
4.6093833341e-01 9.9827426387e-01 6.0545582330e-02
4.6041561953e-01 9.9827741104e-01 6.0508406149e-02
4.5989307209e-01 9.9828074899e-01 6.0468976362e-02
4.5937064586e-01 9.9828421828e-01 6.0427995107e-02
4.5884834264e-01 9.9828781694e-01 6.0385485674e-02
4.5832616422e-01 9.9829154301e-01 6.0341471136e-02
4.5780415523e-01 9.9829543463e-01 6.0295501096e-02
4.5728228852e-01 9.9829945906e-01 6.0247962219e-02
4.5676055209e-01 9.9830360175e-01 6.0199026359e-02
4.5623894689e-01 9.9830786080e-01 6.0148716076e-02
4.5571749900e-01 9.9831225519e-01 6.0096806972e-02
4.5519622744e-01 9.9831679564e-01 6.0043172567e-02
4.5467510839e-01 9.9832145852e-01 5.9988091880e-02
4.5415414595e-01 9.9832624448e-01 5.9931557374e-02
4.5363334778e-01 9.9833115662e-01 5.9873532350e-02
4.5311277577e-01 9.9833623642e-01 5.9813526870e-02
4.5259237064e-01 9.9834143592e-01 5.9752107431e-02
4.5207213478e-01 9.9834675453e-01 5.9689280856e-02
4.5155207062e-01 9.9835219171e-01 5.9625053830e-02
4.5103222550e-01 9.9835777617e-01 5.9559086955e-02
4.5051258462e-01 9.9836349394e-01 5.9491545304e-02

CELL_DATA 384
SCALARS shape double 1
LOOKUP_TABLE default
3.503273e-04
2.408384e-03
5.350263e-03
9.444981e-03
1.507754e-02
2.272295e-02
3.303623e-02
4.659989e-02
6.405615e-02
8.601891e-02
1.128177e-01
1.442836e-01
1.795586e-01
2.173457e-01
2.556737e-01
2.924661e-01
3.258641e-01
3.545067e-01
3.780434e-01
3.966431e-01
4.109659e-01
4.215758e-01
4.292400e-01
4.345432e-01
4.378744e-01
4.390012e-01
4.363939e-01
4.309167e-01
4.216952e-01
4.076249e-01
3.877430e-01
3.613079e-01
3.282938e-01
2.897271e-01
2.477159e-01
2.050229e-01
1.644328e-01
1.281118e-01
9.720066e-02
7.209617e-02
5.236687e-02
3.722077e-02
2.581095e-02
1.730397e-02
1.111579e-02
6.629724e-03
3.411990e-03
1.126273e-03
3.251536e-02
3.982991e-02
4.882529e-02
5.984391e-02
7.337505e-02
8.991341e-02
1.100713e-01
1.342852e-01
1.629465e-01
1.962015e-01
2.336947e-01
2.744160e-01
3.166238e-01
3.582971e-01
3.970188e-01
4.307667e-01
4.581882e-01
4.789188e-01
4.935993e-01
5.033813e-01
5.097252e-01
5.138634e-01
5.169791e-01
5.199243e-01
5.232502e-01
5.261680e-01
5.281580e-01
5.295058e-01
5.290670e-01
5.253164e-01
5.165445e-01
5.010920e-01
4.777840e-01
4.464545e-01
4.081241e-01
3.649858e-01
3.198750e-01
2.755957e-01
2.342833e-01
1.973719e-01
1.654008e-01
1.382943e-01
1.156722e-01
9.691512e-02
8.153587e-02
6.892133e-02
5.858136e-02
5.007877e-02
3.583571e-02
4.722615e-02
6.101722e-02
7.764530e-02
9.773841e-02
1.218751e-01
1.507237e-01
1.847198e-01
2.241932e-01
2.690493e-01
3.184758e-01
3.707810e-01
4.233481e-01
4.732288e-01
5.171517e-01
5.526279e-01
5.783269e-01
5.945578e-01
6.028429e-01
6.053667e-01
6.045272e-01
6.023742e-01
6.006301e-01
6.004879e-01
6.022780e-01
6.048919e-01
6.095186e-01
6.152186e-01
6.205701e-01
6.237034e-01
6.224000e-01
6.144901e-01
5.982151e-01
5.728105e-01
5.386614e-01
4.974890e-01
4.518815e-01
4.046988e-01
3.584163e-01
3.149519e-01
2.754470e-01
2.403690e-01
2.097725e-01
1.833144e-01
1.606949e-01
1.414112e-01
1.250155e-01
1.110566e-01
3.842899e-03
2.175280e-02
4.340528e-02
6.944120e-02
1.007461e-01
1.380785e-01
1.822129e-01
2.335250e-01
2.920655e-01
3.570520e-01
4.265019e-01
4.971178e-01
5.644568e-01
6.239498e-01
6.713172e-01
7.040726e-01
7.218406e-01
7.266232e-01
7.216479e-01
7.106097e-01
6.969940e-01
6.835971e-01
6.708057e-01
6.613789e-01
6.565644e-01
6.563317e-01
6.602454e-01
6.675802e-01
6.772966e-01
6.881093e-01
6.984542e-01
7.067887e-01
7.116354e-01
7.118498e-01
7.066140e-01
6.957342e-01
6.795622e-01
6.589097e-01
6.348124e-01
6.084420e-01
5.809265e-01
5.532049e-01
5.260561e-01
4.999265e-01
4.752584e-01
4.522220e-01
4.309130e-01
4.112948e-01
1.922063e-01
2.089042e-01
2.278586e-01
2.493935e-01
2.735607e-01
3.005995e-01
3.305451e-01
3.633931e-01
3.986887e-01
4.357757e-01
4.737332e-01
5.112845e-01
5.468976e-01
5.786568e-01
6.051776e-01
6.253880e-01
6.390768e-01
6.463371e-01
6.482413e-01
6.462541e-01
6.420384e-01
6.371338e-01
6.328692e-01
6.293053e-01
6.256990e-01
6.246359e-01
6.257693e-01
6.284715e-01
6.318565e-01
6.348576e-01
6.364383e-01
6.355082e-01
6.312365e-01
6.230383e-01
6.108867e-01
5.949947e-01
5.758887e-01
5.542784e-01
5.310237e-01
5.069706e-01
4.828024e-01
4.591078e-01
4.362672e-01
4.147056e-01
3.945019e-01
3.757476e-01
3.584192e-01
3.425210e-01
1.148623e-01
1.281869e-01
1.436559e-01
1.616828e-01
1.823662e-01
2.060964e-01
2.330751e-01
2.635119e-01
2.971084e-01
3.333870e-01
3.715826e-01
4.104853e-01
4.485257e-01
4.835753e-01
5.140951e-01
5.388025e-01
5.573578e-01
5.695716e-01
5.764069e-01
5.791741e-01
5.793761e-01
5.783332e-01
5.772114e-01
5.769043e-01
5.755998e-01
5.752491e-01
5.759499e-01
5.769823e-01
5.773350e-01
5.757411e-01
5.710482e-01
5.619676e-01
5.476218e-01
5.275434e-01
5.022104e-01
4.724790e-01
4.396480e-01
4.051712e-01
3.705377e-01
3.370289e-01
3.054602e-01
2.763781e-01
2.499606e-01
2.264457e-01
2.056041e-01
1.872556e-01
1.711232e-01
1.570248e-01
6.061481e-02
6.930908e-02
7.969663e-02
9.222473e-02
1.069872e-01
1.244838e-01
1.450693e-01
1.691922e-01
1.967957e-01
2.277408e-01
2.616562e-01
2.976980e-01
3.345730e-01
3.702078e-01
4.030658e-01
4.316555e-01
4.553557e-01
4.734171e-01
4.863844e-01
4.951187e-01
5.007284e-01
5.041472e-01
5.062812e-01
5.078500e-01
5.080083e-01
5.069544e-01
5.054757e-01
5.029366e-01
4.984544e-01
4.908960e-01
4.793965e-01
4.629034e-01
4.408865e-01
4.132825e-01
3.811775e-01
3.459560e-01
3.093522e-01
2.730544e-01
2.385799e-01
2.070598e-01
1.789445e-01
1.543810e-01
1.331421e-01
1.151898e-01
1.000116e-01
8.723367e-02
7.644266e-02
6.739529e-02
4.034688e-03
6.845013e-03
1.064288e-02
1.587264e-02
2.259647e-02
3.141158e-02
4.284775e-02
5.766731e-02
7.619699e-02
9.886281e-02
1.259925e-01
1.574455e-01
1.924973e-01
2.292617e-01
2.661523e-01
3.012005e-01
3.331199e-01
3.601540e-01
3.821018e-01
3.991590e-01
4.119391e-01
4.209598e-01
4.268892e-01
4.303032e-01
4.307833e-01
4.279012e-01
4.225975e-01
4.143382e-01
4.024275e-01
3.859956e-01
3.647202e-01
3.381524e-01
3.065767e-01
2.708140e-01
2.329399e-01
1.949994e-01
1.589924e-01
1.264152e-01
9.825350e-02
7.494452e-02
5.613976e-02
4.131139e-02
2.970226e-02
2.097733e-02
1.439654e-02
9.478372e-03
5.773613e-03
3.072173e-03
SCALARS skew double 1
LOOKUP_TABLE default
9.972527e-01
9.831935e-01
9.668164e-01
9.479774e-01
9.262704e-01
9.013047e-01
8.723588e-01
8.393952e-01
8.022064e-01
7.605110e-01
7.143503e-01
6.641491e-01
6.107884e-01
5.548890e-01
4.977316e-01
4.405852e-01
3.848126e-01
3.319802e-01
2.824783e-01
2.365725e-01
1.936807e-01
1.541431e-01
1.170666e-01
8.155998e-02
4.656113e-02
2.335873e-02
6.148661e-02
1.025939e-01
1.474767e-01
1.970325e-01
2.509199e-01
3.091246e-01
3.709965e-01
4.352787e-01
5.002375e-01
5.640702e-01
6.250723e-01
6.818732e-01
7.337713e-01
7.800335e-01
8.207679e-01
8.564320e-01
8.875015e-01
9.146762e-01
9.379845e-01
9.581789e-01
9.756937e-01
9.909535e-01
9.305173e-01
9.183848e-01
9.042138e-01
8.877493e-01
8.685380e-01
8.462001e-01
8.201931e-01
7.902427e-01
7.559873e-01
7.171511e-01
6.737420e-01
6.261142e-01
5.750651e-01
5.213592e-01
4.663732e-01
4.114936e-01
3.582260e-01
3.078303e-01
2.608814e-01
2.176598e-01
1.777781e-01
1.412509e-01
1.072528e-01
7.496302e-02
4.340721e-02
2.504740e-02
5.730342e-02
9.417741e-02
1.347766e-01
1.795766e-01
2.285641e-01
2.815974e-01
3.380366e-01
3.966513e-01
4.559159e-01
5.141000e-01
5.695870e-01
6.210898e-01
6.678916e-01
7.095263e-01
7.460529e-01
7.778236e-01
8.052542e-01
8.289432e-01
8.491969e-01
8.665617e-01
8.814397e-01
8.942263e-01
9.539705e-01
9.410936e-01
9.261380e-01
9.088188e-01
8.886552e-01
8.652439e-01
8.380560e-01
8.067259e-01
7.708029e-01
7.299641e-01
6.841752e-01
6.337695e-01
5.795669e-01
5.225140e-01
4.642201e-01
4.063506e-01
3.506931e-01
2.984823e-01
2.504476e-01
2.068677e-01
1.674222e-01
1.318278e-01
9.919629e-02
6.865121e-02
3.918216e-02
3.085070e-02
6.115765e-02
9.424787e-02
1.308922e-01
1.716533e-01
2.168594e-01
2.662125e-01
3.190635e-01
3.742100e-01
4.303138e-01
4.857353e-01
5.389579e-01
5.887638e-01
6.344163e-01
6.755229e-01
7.120288e-01
7.441531e-01
7.722100e-01
7.966988e-01
8.179476e-01
8.363900e-01
8.523838e-01
8.662922e-01
9.966548e-01
9.814656e-01
9.637957e-01
9.432728e-01
9.193214e-01
8.914383e-01
8.590190e-01
8.216014e-01
7.786945e-01
7.300507e-01
6.758579e-01
6.168545e-01
5.544353e-01
4.902573e-01
4.265667e-01
3.654491e-01
3.088221e-01
2.576243e-01
2.122954e-01
1.727443e-01
1.384226e-01
1.086742e-01
8.250342e-02
5.901635e-02
3.726610e-02
3.231955e-02
5.428591e-02
7.775130e-02
1.032167e-01
1.309960e-01
1.614690e-01
1.944437e-01
2.296882e-01
2.666725e-01
3.049520e-01
3.437632e-01
3.823226e-01
4.198762e-01
4.558426e-01
4.897500e-01
5.212514e-01
5.501893e-01
5.764895e-01
6.003031e-01
6.216690e-01
6.407704e-01
6.577771e-01
6.729152e-01
8.287404e-01
8.152203e-01
7.998336e-01
7.822836e-01
7.624171e-01
7.399177e-01
7.145520e-01
6.860229e-01
6.542363e-01
6.191390e-01
5.807581e-01
5.392939e-01
4.951185e-01
4.490715e-01
4.018412e-01
3.543164e-01
3.071090e-01
2.612064e-01
2.170785e-01
1.750134e-01
1.350862e-01
9.905248e-02
6.640948e-02
3.553221e-02
3.324869e-02
6.566756e-02
9.823478e-02
1.313092e-01
1.651613e-01
1.999952e-01
2.356149e-01
2.720614e-01
3.090679e-01
3.463592e-01
3.833079e-01
4.194677e-01
4.543949e-01
4.877197e-01
5.190894e-01
5.482678e-01
5.751612e-01
5.997292e-01
6.220554e-01
6.421324e-01
6.601735e-01
6.763159e-01
6.907457e-01
7.035931e-01
8.621151e-01
8.484368e-01
8.328017e-01
8.148591e-01
7.944810e-01
7.712843e-01
7.449907e-01
7.152270e-01
6.818995e-01
6.449300e-01
6.043176e-01
5.602771e-01
5.132413e-01
4.642576e-01
4.141322e-01
3.639364e-01
3.143448e-01
2.666558e-01
2.213605e-01
1.787447e-01
1.388247e-01
1.027882e-01
6.912636e-02
3.712272e-02
3.038919e-02
6.322875e-02
9.697252e-02
1.323031e-01
1.696929e-01
2.095304e-01
2.514739e-01
2.955667e-01
3.413307e-01
3.882061e-01
4.350703e-01
4.810656e-01
5.253644e-01
5.673039e-01
6.063245e-01
6.420736e-01
6.744852e-01
7.035934e-01
7.296120e-01
7.526073e-01
7.729418e-01
7.908677e-01
8.066820e-01
8.205811e-01
8.785541e-01
8.649706e-01
8.493841e-01
8.313797e-01
8.109151e-01
7.875339e-01
7.609295e-01
7.306488e-01
6.966458e-01
6.588305e-01
6.171600e-01
5.718398e-01
5.233230e-01
4.728612e-01
4.212825e-01
3.697646e-01
3.189206e-01
2.706099e-01
2.254107e-01
1.832077e-01
1.436468e-01
1.069414e-01
7.270800e-02
4.006985e-02
2.667051e-02
5.953463e-02
9.359460e-02
1.297642e-01
1.686353e-01
2.107640e-01
2.556066e-01
3.033089e-01
3.532941e-01
4.048872e-01
4.565901e-01
5.073109e-01
5.559997e-01
6.018429e-01
6.441691e-01
6.825556e-01
7.170078e-01
7.476347e-01
7.747726e-01
7.984840e-01
8.192568e-01
8.374108e-01
8.533186e-01
8.671865e-01
9.682890e-01
9.520696e-01
9.336702e-01
9.119979e-01
8.885571e-01
8.620917e-01
8.322466e-01
7.980368e-01
7.601919e-01
7.186019e-01
6.728750e-01
6.230684e-01
5.695792e-01
5.145622e-01
4.584467e-01
4.025411e-01
3.468716e-01
2.944213e-01
2.452608e-01
1.995568e-01
1.566706e-01
1.170576e-01
8.021953e-02
4.504563e-02
2.432129e-02
5.811607e-02
9.485281e-02
1.345382e-01
1.776274e-01
2.250971e-01
2.754864e-01
3.293892e-01
3.861470e-01
4.452850e-01
5.044176e-01
5.623439e-01
6.178936e-01
6.702993e-01
7.187365e-01
7.623574e-01
8.014743e-01
8.363056e-01
8.677300e-01
8.948291e-01
9.186897e-01
9.397035e-01
9.586618e-01
9.752709e-01
SCALARS scaled_jacobian double 1
LOOKUP_TABLE default
4.315458e-03
2.639649e-02
5.210110e-02
8.162605e-02
1.155555e-01
1.544100e-01
1.991577e-01
2.496099e-01
3.057190e-01
3.673781e-01
4.337923e-01
5.034209e-01
5.739917e-01
6.435893e-01
7.096218e-01
7.699270e-01
8.228079e-01
8.670862e-01
9.031627e-01
9.317450e-01
9.540770e-01
9.708301e-01
9.831402e-01
9.918046e-01
9.973266e-01
9.993269e-01
9.953395e-01
9.870428e-01
9.732875e-01
9.524866e-01
9.233256e-01
8.844082e-01
8.349469e-01
7.752193e-01
7.068429e-01
6.324848e-01
5.554758e-01
4.791731e-01
4.061081e-01
3.386884e-01
2.778325e-01
2.236094e-01
1.757940e-01
1.336255e-01
9.725974e-02
6.564518e-02
3.817091e-02
1.420966e-02
1.089266e-01
1.278500e-01
1.498936e-01
1.754107e-01
2.050355e-01
2.392451e-01
2.786998e-01
3.235567e-01
3.739778e-01
4.298241e-01
4.903444e-01
5.541141e-01
6.190136e-01
6.829892e-01
7.434532e-01
7.982738e-01
8.458177e-01
8.853553e-01
9.172039e-01
9.421196e-01
9.612616e-01
9.754863e-01
9.858421e-01
9.930753e-01
9.976764e-01
9.992261e-01
9.959517e-01
9.890778e-01
9.776737e-01
9.604790e-01
9.362389e-01
9.037559e-01
8.623079e-01
8.120976e-01
7.543381e-01
6.912735e-01
6.257488e-01
5.606667e-01
4.983327e-01
4.406072e-01
3.884041e-01
3.419526e-01
3.011573e-01
2.654739e-01
2.346718e-01
2.080729e-01
1.851595e-01
1.653855e-01
7.223991e-02
9.239793e-02
1.157621e-01
1.427379e-01
1.740096e-01
2.100972e-01
2.516464e-01
2.989520e-01
3.522948e-01
4.115658e-01
4.759962e-01
5.440643e-01
6.134444e-01
6.816631e-01
7.457108e-01
8.031134e-01
8.520708e-01
8.920863e-01
9.236102e-01
9.476676e-01
9.656180e-01
9.786366e-01
9.878850e-01
9.941912e-01
9.981066e-01
9.988260e-01
9.953892e-01
9.890615e-01
9.789377e-01
9.638689e-01
9.425404e-01
9.138354e-01
8.770144e-01
8.321584e-01
7.801221e-01
7.227721e-01
6.625388e-01
6.019720e-01
5.432116e-01
4.879044e-01
4.370751e-01
3.911523e-01
3.502254e-01
3.139446e-01
2.820855e-01
2.541782e-01
2.298027e-01
2.084871e-01
5.254616e-03
2.910958e-02
5.683900e-02
8.898899e-02
1.263907e-01
1.697030e-01
2.196468e-01
2.765747e-01
3.406667e-01
4.114418e-01
4.874450e-01
5.661631e-01
6.441347e-01
7.178450e-01
7.837910e-01
8.397107e-01
8.846299e-01
9.192303e-01
9.449113e-01
9.634110e-01
9.764543e-01
9.854652e-01
9.916142e-01
9.957062e-01
9.982872e-01
9.987116e-01
9.963665e-01
9.925512e-01
9.868853e-01
9.789044e-01
9.680067e-01
9.537173e-01
9.356170e-01
9.135418e-01
8.874482e-01
8.577180e-01
8.250244e-01
7.902742e-01
7.544137e-01
7.183995e-01
6.831128e-01
6.492220e-01
6.172548e-01
5.874000e-01
5.599131e-01
5.348046e-01
5.120437e-01
4.914759e-01
2.657809e-01
2.861930e-01
3.092656e-01
3.353608e-01
3.645917e-01
3.972666e-01
4.335068e-01
4.734417e-01
5.168133e-01
5.632014e-01
6.119656e-01
6.621435e-01
7.125080e-01
7.613523e-01
8.073137e-01
8.490780e-01
8.858815e-01
9.170004e-01
9.424253e-01
9.624495e-01
9.775714e-01
9.879201e-01
9.945640e-01
9.984428e-01
9.986365e-01
9.946847e-01
9.881183e-01
9.788037e-01
9.665351e-01
9.510589e-01
9.322901e-01
9.100660e-01
8.844498e-01
8.556144e-01
8.241488e-01
7.906672e-01
7.559045e-01
7.206143e-01
6.855891e-01
6.515147e-01
6.188950e-01
5.881294e-01
5.594101e-01
5.329957e-01
5.088068e-01
4.868167e-01
4.668943e-01
4.489544e-01
2.148996e-01
2.358322e-01
2.596255e-01
2.867365e-01
3.172502e-01
3.515870e-01
3.899412e-01
4.325512e-01
4.791369e-01
5.292723e-01
5.822850e-01
6.370886e-01
6.922475e-01
7.456716e-01
7.957706e-01
8.409986e-01
8.805516e-01
9.135524e-01
9.401547e-01
9.608419e-01
9.763178e-01
9.869937e-01
9.941106e-01
9.983003e-01
9.988609e-01
9.950719e-01
9.884211e-01
9.784828e-01
9.646846e-01
9.463240e-01
9.229911e-01
8.941464e-01
8.596761e-01
8.197667e-01
7.754260e-01
7.278218e-01
6.783803e-01
6.285422e-01
5.797192e-01
5.330739e-01
4.893266e-01
4.489540e-01
4.120698e-01
3.788965e-01
3.491484e-01
3.226276e-01
2.990178e-01
2.781144e-01
1.896118e-01
2.105169e-01
2.343859e-01
2.617820e-01
2.926662e-01
3.275798e-01
3.667666e-01
4.105853e-01
4.586786e-01
5.106217e-01
5.657674e-01
6.229847e-01
6.807327e-01
7.365989e-01
7.889187e-01
8.360103e-01
8.771222e-01
9.110086e-01
9.379679e-01
9.588758e-01
9.746512e-01
9.859240e-01
9.934852e-01
9.980198e-01
9.991226e-01
9.956305e-01
9.892123e-01
9.792979e-01
9.651209e-01
9.456959e-01
9.204735e-01
8.886349e-01
8.499252e-01
8.044809e-01
7.536425e-01
6.989400e-01
6.422530e-01
5.854408e-01
5.302860e-01
4.782320e-01
4.300273e-01
3.861134e-01
3.464522e-01
3.112808e-01
2.801120e-01
2.526271e-01
2.283735e-01
2.071130e-01
4.979093e-02
7.521783e-02
1.040023e-01
1.377936e-01
1.741614e-01
2.149356e-01
2.604675e-01
3.119484e-01
3.678442e-01
4.277654e-01
4.915308e-01
5.580905e-01
6.257584e-01
6.907487e-01
7.517224e-01
8.066644e-01
8.551975e-01
8.949506e-01
9.267027e-01
9.512714e-01
9.698705e-01
9.831428e-01
9.920714e-01
9.974977e-01
9.992703e-01
9.958361e-01
9.889208e-01
9.777524e-01
9.613268e-01
9.381385e-01
9.078231e-01
8.691064e-01
8.216148e-01
7.651951e-01
7.021831e-01
6.345829e-01
5.648168e-01
4.950502e-01
4.275742e-01
3.646790e-01
3.068137e-01
2.543065e-01
2.062776e-01
1.644516e-01
1.273750e-01
9.457201e-02
6.488829e-02
3.883456e-02
SCALARS aspect_ratio double 1
LOOKUP_TABLE default
9.770006e+00
9.192289e+00
8.624817e+00
8.071232e+00
7.535612e+00
7.022291e+00
6.535835e+00
6.081114e+00
5.662975e+00
5.285926e+00
4.953855e+00
4.669584e+00
4.434396e+00
4.247660e+00
4.106679e+00
4.006751e+00
3.941505e+00
3.903864e+00
3.886481e+00
3.882369e+00
3.885214e+00
3.889924e+00
3.892600e+00
3.890507e+00
3.882057e+00
3.866889e+00
3.846035e+00
3.821843e+00
3.798000e+00
3.779606e+00
3.773331e+00
3.787114e+00
3.829583e+00
3.909312e+00
4.034018e+00
4.209574e+00
4.439313e+00
4.723844e+00
5.061384e+00
5.448228e+00
5.879492e+00
6.349678e+00
6.853066e+00
7.384203e+00
7.937700e+00
8.508809e+00
9.093167e+00
9.686955e+00
4.517347e+00
4.347827e+00
4.178486e+00
4.010369e+00
3.844865e+00
3.683656e+00
3.528782e+00
3.382774e+00
3.248557e+00
3.129309e+00
3.028313e+00
2.948656e+00
2.892805e+00
2.862127e+00
2.856500e+00
2.874044e+00
2.911052e+00
2.962600e+00
3.022657e+00
3.084767e+00
3.142440e+00
3.190023e+00
3.222832e+00
3.237488e+00
3.232136e+00
3.206648e+00
3.162743e+00
3.103696e+00
3.034194e+00
2.960021e+00
2.887870e+00
2.824661e+00
2.776956e+00
2.750303e+00
2.748821e+00
2.774697e+00
2.828117e+00
2.907512e+00
3.010092e+00
3.132331e+00
3.270510e+00
3.421077e+00
3.580807e+00
3.747038e+00
3.917427e+00
4.090204e+00
4.263939e+00
4.437578e+00
2.928232e+00
2.834177e+00
2.740305e+00
2.647240e+00
2.555852e+00
2.467247e+00
2.382840e+00
2.304451e+00
2.234301e+00
2.174960e+00
2.129261e+00
2.100086e+00
2.090013e+00
2.100862e+00
2.133248e+00
2.186175e+00
2.256804e+00
2.340761e+00
2.432191e+00
2.524296e+00
2.609770e+00
2.681785e+00
2.734398e+00
2.763189e+00
2.765731e+00
2.741929e+00
2.694109e+00
2.626514e+00
2.544901e+00
2.455881e+00
2.366506e+00
2.283386e+00
2.212237e+00
2.157408e+00
2.121773e+00
2.106523e+00
2.111331e+00
2.134678e+00
2.174306e+00
2.227589e+00
2.291871e+00
2.364698e+00
2.443906e+00
2.527749e+00
2.614737e+00
2.703749e+00
2.793898e+00
2.884541e+00
1.915545e+00
1.855920e+00
1.796674e+00
1.738357e+00
1.681731e+00
1.627811e+00
1.577926e+00
1.533802e+00
1.497576e+00
1.471767e+00
1.459176e+00
1.462644e+00
1.484688e+00
1.527045e+00
1.590278e+00
1.673434e+00
1.773883e+00
1.887507e+00
2.008781e+00
2.131088e+00
2.247049e+00
2.349379e+00
2.431434e+00
2.487983e+00
2.515853e+00
2.514397e+00
2.485601e+00
2.433468e+00
2.363452e+00
2.281635e+00
2.194245e+00
2.106822e+00
2.023963e+00
1.949110e+00
1.884669e+00
1.831981e+00
1.791498e+00
1.762975e+00
1.745683e+00
1.738589e+00
1.740490e+00
1.750140e+00
1.766322e+00
1.787951e+00
1.814037e+00
1.843742e+00
1.876346e+00
1.911263e+00
2.222162e+00
2.172678e+00
2.124758e+00
2.078917e+00
2.035814e+00
1.996239e+00
1.961142e+00
1.931668e+00
1.909148e+00
1.895053e+00
1.890950e+00
1.898388e+00
1.918747e+00
1.953011e+00
2.001566e+00
2.063918e+00
2.138467e+00
2.222518e+00
2.312169e+00
2.402462e+00
2.487610e+00
2.561769e+00
2.619510e+00
2.656529e+00
2.670233e+00
2.660168e+00
2.628149e+00
2.577685e+00
2.513505e+00
2.440841e+00
2.365008e+00
2.290693e+00
2.221698e+00
2.160801e+00
2.109841e+00
2.069760e+00
2.040759e+00
2.022479e+00
2.014187e+00
2.014937e+00
2.023676e+00
2.039332e+00
2.060873e+00
2.087365e+00
2.117978e+00
2.151994e+00
2.188792e+00
2.227856e+00
2.981794e+00
2.900314e+00
2.820080e+00
2.741726e+00
2.666122e+00
2.594271e+00
2.527411e+00
2.467022e+00
2.414850e+00
2.372796e+00
2.342843e+00
2.326898e+00
2.326572e+00
2.342908e+00
2.376069e+00
2.425100e+00
2.487711e+00
2.560511e+00
2.638939e+00
2.717620e+00
2.790666e+00
2.852493e+00
2.898186e+00
2.924043e+00
2.927982e+00
2.909854e+00
2.871554e+00
2.816548e+00
2.749525e+00
2.675839e+00
2.601125e+00
2.530673e+00
2.468977e+00
2.419494e+00
2.384516e+00
2.365196e+00
2.361627e+00
2.373052e+00
2.398116e+00
2.435136e+00
2.482315e+00
2.537870e+00
2.600168e+00
2.667721e+00
2.739323e+00
2.813941e+00
2.890747e+00
2.969057e+00
4.560957e+00
4.400784e+00
4.241492e+00
4.084046e+00
3.929893e+00
3.780536e+00
3.637853e+00
3.504013e+00
3.381584e+00
3.273231e+00
3.181604e+00
3.109131e+00
3.057694e+00
3.028345e+00
3.020842e+00
3.033580e+00
3.063444e+00
3.106390e+00
3.157399e+00
3.211040e+00
3.261791e+00
3.304777e+00
3.335941e+00
3.352329e+00
3.352298e+00
3.335696e+00
3.303993e+00
3.259983e+00
3.207617e+00
3.151721e+00
3.097736e+00
3.051298e+00
3.017615e+00
3.001105e+00
3.004943e+00
3.030989e+00
3.079646e+00
3.150045e+00
3.240301e+00
3.347906e+00
3.470129e+00
3.604190e+00
3.747539e+00
3.897731e+00
4.052861e+00
4.211273e+00
4.371669e+00
4.532917e+00
9.807102e+00
9.233313e+00
8.670110e+00
8.120946e+00
7.590145e+00
7.081745e+00
6.600226e+00
6.150139e+00
5.736217e+00
5.362708e+00
5.033190e+00
4.750243e+00
4.515017e+00
4.326980e+00
4.183533e+00
4.080301e+00
4.011327e+00
3.970078e+00
3.949710e+00
3.943716e+00
3.946218e+00
3.952464e+00
3.958848e+00
3.962870e+00
3.963120e+00
3.959344e+00
3.952595e+00
3.945113e+00
3.940300e+00
3.942758e+00
3.958305e+00
3.993810e+00
4.056563e+00
4.153778e+00
4.291806e+00
4.475631e+00
4.708261e+00
4.990583e+00
5.321450e+00
5.698062e+00
6.116561e+00
6.572336e+00
7.060576e+00
7.576052e+00
8.114124e+00
8.670286e+00
9.240533e+00
9.820982e+00
SCALARS growth double 1
LOOKUP_TABLE default
1.058683e+00
1.058683e+00
1.057263e+00
1.055696e+00
1.053989e+00
1.052130e+00
1.050114e+00
1.047971e+00
1.045707e+00
1.043317e+00
1.040812e+00
1.038208e+00
1.035516e+00
1.032737e+00
1.029880e+00
1.026958e+00
1.023980e+00
1.020991e+00
1.017958e+00
1.014901e+00
1.011818e+00
1.008746e+00
1.005663e+00
1.002574e+00
1.003606e+00
1.006705e+00
1.009819e+00
1.012935e+00
1.016048e+00
1.019145e+00
1.022231e+00
1.025287e+00
1.028308e+00
1.031269e+00
1.034167e+00
1.036989e+00
1.039725e+00
1.042355e+00
1.044884e+00
1.047291e+00
1.049561e+00
1.051693e+00
1.053662e+00
1.055503e+00
1.057179e+00
1.058701e+00
1.060064e+00
1.060064e+00
1.083431e+00
1.083436e+00
1.083436e+00
1.083282e+00
1.082954e+00
1.082410e+00
1.081614e+00
1.080562e+00
1.079226e+00
1.077554e+00
1.075512e+00
1.073071e+00
1.070200e+00
1.066848e+00
1.062984e+00
1.058587e+00
1.053638e+00
1.048207e+00
1.042235e+00
1.035779e+00
1.028872e+00
1.021654e+00
1.014161e+00
1.006498e+00
1.008945e+00
1.016596e+00
1.024091e+00
1.031312e+00
1.038170e+00
1.044569e+00
1.050493e+00
1.055888e+00
1.060748e+00
1.065046e+00
1.068815e+00
1.072078e+00
1.074871e+00
1.077214e+00
1.079162e+00
1.080746e+00
1.081992e+00
1.082946e+00
1.083616e+00
1.084079e+00
1.084326e+00
1.084397e+00
1.084397e+00
1.084305e+00
1.147865e+00
1.150440e+00
1.153169e+00
1.155975e+00
1.158731e+00
1.161227e+00
1.163151e+00
1.164063e+00
1.163395e+00
1.160488e+00
1.154709e+00
1.145632e+00
1.133242e+00
1.118059e+00
1.101063e+00
1.083443e+00
1.071366e+00
1.065190e+00
1.058002e+00
1.049831e+00
1.040715e+00
1.030850e+00
1.020356e+00
1.019134e+00
1.029021e+00
1.039098e+00
1.049389e+00
1.059752e+00
1.069843e+00
1.079074e+00
1.086610e+00
1.091425e+00
1.092455e+00
1.088830e+00
1.086239e+00
1.088873e+00
1.090884e+00
1.092347e+00
1.093351e+00
1.093968e+00
1.094255e+00
1.094274e+00
1.094274e+00
1.097944e+00
1.115017e+00
1.130380e+00
1.144094e+00
1.156268e+00
1.150538e+00
1.161167e+00
1.173124e+00
1.186456e+00
1.201127e+00
1.216956e+00
1.233540e+00
1.250156e+00
1.265693e+00
1.278625e+00
1.287133e+00
1.289423e+00
1.284215e+00
1.271221e+00
1.251361e+00
1.226565e+00
1.199236e+00
1.171660e+00
1.145619e+00
1.122279e+00
1.102260e+00
1.085774e+00
1.072783e+00
1.063118e+00
1.056558e+00
1.052874e+00
1.051843e+00
1.059752e+00
1.069843e+00
1.079074e+00
1.086610e+00
1.091425e+00
1.092455e+00
1.098572e+00
1.108759e+00
1.118434e+00
1.127175e+00
1.134680e+00
1.140787e+00
1.145471e+00
1.148818e+00
1.150988e+00
1.152181e+00
1.152600e+00
1.152436e+00
1.151852e+00
1.150983e+00
1.156268e+00
1.150538e+00
1.161167e+00
1.173124e+00
1.186456e+00
1.201127e+00
1.216956e+00
1.233540e+00
1.250156e+00
1.265693e+00
1.278625e+00
1.287133e+00
1.289423e+00
1.284215e+00
1.271221e+00
1.251361e+00
1.226565e+00
1.199236e+00
1.171660e+00
1.145619e+00
1.122279e+00
1.102260e+00
1.085774e+00
1.072783e+00
1.063118e+00
1.056558e+00
1.052874e+00
1.051843e+00
1.053256e+00
1.060703e+00
1.069515e+00
1.076999e+00
1.083182e+00
1.088368e+00
1.098572e+00
1.108759e+00
1.118434e+00
1.127175e+00
1.134680e+00
1.140787e+00
1.145471e+00
1.148818e+00
1.150988e+00
1.152181e+00
1.152600e+00
1.152436e+00
1.151852e+00
1.150983e+00
1.149934e+00
1.090834e+00
1.091531e+00
1.092113e+00
1.092580e+00
1.092875e+00
1.092968e+00
1.092968e+00
1.092825e+00
1.092413e+00
1.091661e+00
1.090505e+00
1.088880e+00
1.086710e+00
1.083908e+00
1.080375e+00
1.076030e+00
1.070789e+00
1.064646e+00
1.057519e+00
1.049437e+00
1.040443e+00
1.030714e+00
1.028799e+00
1.031308e+00
1.034831e+00
1.039363e+00
1.044834e+00
1.051091e+00
1.057887e+00
1.064864e+00
1.071554e+00
1.077408e+00
1.081852e+00
1.084382e+00
1.085079e+00
1.087779e+00
1.089852e+00
1.091384e+00
1.092458e+00
1.093136e+00
1.093485e+00
1.093552e+00
1.093552e+00
1.093404e+00
1.093057e+00
1.092553e+00
1.091917e+00
1.091181e+00
1.083176e+00
1.083176e+00
1.083169e+00
1.082985e+00
1.082661e+00
1.082107e+00
1.081313e+00
1.080244e+00
1.078906e+00
1.077237e+00
1.075192e+00
1.072743e+00
1.069862e+00
1.066530e+00
1.062683e+00
1.058316e+00
1.053397e+00
1.048006e+00
1.042084e+00
1.035688e+00
1.028855e+00
1.021707e+00
1.015942e+00
1.015864e+00
1.017522e+00
1.019773e+00
1.023528e+00
1.030662e+00
1.037434e+00
1.043783e+00
1.049652e+00
1.055010e+00
1.059826e+00
1.064133e+00
1.067919e+00
1.071205e+00
1.074012e+00
1.076386e+00
1.078370e+00
1.079981e+00
1.081263e+00
1.082232e+00
1.082979e+00
1.083470e+00
1.083757e+00
1.083853e+00
1.083853e+00
1.083807e+00
1.058497e+00
1.058497e+00
1.057080e+00
1.055498e+00
1.053819e+00
1.051967e+00
1.049972e+00
1.047829e+00
1.045585e+00
1.043215e+00
1.040721e+00
1.038122e+00
1.035432e+00
1.032678e+00
1.029836e+00
1.026934e+00
1.025255e+00
1.023359e+00
1.021346e+00
1.019439e+00
1.017821e+00
1.016625e+00
1.015942e+00
1.015827e+00
1.016312e+00
1.017405e+00
1.019091e+00
1.021321e+00
1.024006e+00
1.026996e+00
1.030073e+00
1.032951e+00
1.035303e+00
1.036812e+00
1.037242e+00
1.036496e+00
1.039187e+00
1.041799e+00
1.044315e+00
1.046705e+00
1.048965e+00
1.051070e+00
1.053073e+00
1.054908e+00
1.056593e+00
1.058111e+00
1.059499e+00
1.059499e+00
SCALARS fold double 1
LOOKUP_TABLE default
1.000000e+00
1.000000e+00
1.000000e+00
1.000000e+00
1.000000e+00
1.000000e+00
1.000000e+00
1.000000e+00
1.000000e+00
1.000000e+00
1.000000e+00
1.000000e+00
1.000000e+00
1.000000e+00
1.000000e+00
1.000000e+00
1.000000e+00
1.000000e+00
1.000000e+00
1.000000e+00
1.000000e+00
1.000000e+00
1.000000e+00
1.000000e+00
1.000000e+00
1.000000e+00
1.000000e+00
1.000000e+00
1.000000e+00
1.000000e+00
1.000000e+00
1.000000e+00
1.000000e+00
1.000000e+00
1.000000e+00
1.000000e+00
1.000000e+00
1.000000e+00
1.000000e+00
1.000000e+00
1.000000e+00
1.000000e+00
1.000000e+00
1.000000e+00
1.000000e+00
1.000000e+00
1.000000e+00
1.000000e+00
1.000000e+00
1.000000e+00
1.000000e+00
1.000000e+00
1.000000e+00
1.000000e+00
1.000000e+00
1.000000e+00
1.000000e+00
1.000000e+00
1.000000e+00
1.000000e+00
1.000000e+00
1.000000e+00
1.000000e+00
1.000000e+00
1.000000e+00
1.000000e+00
1.000000e+00
1.000000e+00
1.000000e+00
1.000000e+00
1.000000e+00
1.000000e+00
1.000000e+00
1.000000e+00
1.000000e+00
1.000000e+00
1.000000e+00
1.000000e+00
1.000000e+00
1.000000e+00
1.000000e+00
1.000000e+00
1.000000e+00
1.000000e+00
1.000000e+00
1.000000e+00
1.000000e+00
1.000000e+00
1.000000e+00
1.000000e+00
1.000000e+00
1.000000e+00
1.000000e+00
1.000000e+00
1.000000e+00
1.000000e+00
1.000000e+00
1.000000e+00
1.000000e+00
1.000000e+00
1.000000e+00
1.000000e+00
1.000000e+00
1.000000e+00
1.000000e+00
1.000000e+00
1.000000e+00
1.000000e+00
1.000000e+00
1.000000e+00
1.000000e+00
1.000000e+00
1.000000e+00
1.000000e+00
1.000000e+00
1.000000e+00
1.000000e+00
1.000000e+00
1.000000e+00
1.000000e+00
1.000000e+00
1.000000e+00
1.000000e+00
1.000000e+00
1.000000e+00
1.000000e+00
1.000000e+00
1.000000e+00
1.000000e+00
1.000000e+00
1.000000e+00
1.000000e+00
1.000000e+00
1.000000e+00
1.000000e+00
1.000000e+00
1.000000e+00
1.000000e+00
1.000000e+00
1.000000e+00
1.000000e+00
1.000000e+00
1.000000e+00
1.000000e+00
1.000000e+00
1.000000e+00
1.000000e+00
1.000000e+00
1.000000e+00
1.000000e+00
1.000000e+00
1.000000e+00
1.000000e+00
1.000000e+00
1.000000e+00
1.000000e+00
1.000000e+00
1.000000e+00
1.000000e+00
1.000000e+00
1.000000e+00
1.000000e+00
1.000000e+00
1.000000e+00
1.000000e+00
1.000000e+00
1.000000e+00
1.000000e+00
1.000000e+00
1.000000e+00
1.000000e+00
1.000000e+00
1.000000e+00
1.000000e+00
1.000000e+00
1.000000e+00
1.000000e+00
1.000000e+00
1.000000e+00
1.000000e+00
1.000000e+00
1.000000e+00
1.000000e+00
1.000000e+00
1.000000e+00
1.000000e+00
1.000000e+00
1.000000e+00
1.000000e+00
1.000000e+00
1.000000e+00
1.000000e+00
1.000000e+00
1.000000e+00
1.000000e+00
1.000000e+00
1.000000e+00
1.000000e+00
1.000000e+00
1.000000e+00
1.000000e+00
1.000000e+00
1.000000e+00
1.000000e+00
1.000000e+00
1.000000e+00
1.000000e+00
1.000000e+00
1.000000e+00
1.000000e+00
1.000000e+00
1.000000e+00
1.000000e+00
1.000000e+00
1.000000e+00
1.000000e+00
1.000000e+00
1.000000e+00
1.000000e+00
1.000000e+00
1.000000e+00
1.000000e+00
1.000000e+00
1.000000e+00
1.000000e+00
1.000000e+00
1.000000e+00
1.000000e+00
1.000000e+00
1.000000e+00
1.000000e+00
1.000000e+00
1.000000e+00
1.000000e+00
1.000000e+00
1.000000e+00
1.000000e+00
1.000000e+00
1.000000e+00
1.000000e+00
1.000000e+00
1.000000e+00
1.000000e+00
1.000000e+00
1.000000e+00
1.000000e+00
1.000000e+00
1.000000e+00
1.000000e+00
1.000000e+00
1.000000e+00
1.000000e+00
1.000000e+00
1.000000e+00
1.000000e+00
1.000000e+00
1.000000e+00
1.000000e+00
1.000000e+00
1.000000e+00
1.000000e+00
1.000000e+00
1.000000e+00
1.000000e+00
1.000000e+00
1.000000e+00
1.000000e+00
1.000000e+00
1.000000e+00
1.000000e+00
1.000000e+00
1.000000e+00
1.000000e+00
1.000000e+00
1.000000e+00
1.000000e+00
1.000000e+00
1.000000e+00
1.000000e+00
1.000000e+00
1.000000e+00
1.000000e+00
1.000000e+00
1.000000e+00
1.000000e+00
1.000000e+00
1.000000e+00
1.000000e+00
1.000000e+00
1.000000e+00
1.000000e+00
1.000000e+00
1.000000e+00
1.000000e+00
1.000000e+00
1.000000e+00
1.000000e+00
1.000000e+00
1.000000e+00
1.000000e+00
1.000000e+00
1.000000e+00
1.000000e+00
1.000000e+00
1.000000e+00
1.000000e+00
1.000000e+00
1.000000e+00
1.000000e+00
1.000000e+00
1.000000e+00
1.000000e+00
1.000000e+00
1.000000e+00
1.000000e+00
1.000000e+00
1.000000e+00
1.000000e+00
1.000000e+00
1.000000e+00
1.000000e+00
1.000000e+00
1.000000e+00
1.000000e+00
1.000000e+00
1.000000e+00
1.000000e+00
1.000000e+00
1.000000e+00
1.000000e+00
1.000000e+00
1.000000e+00
1.000000e+00
1.000000e+00
1.000000e+00
1.000000e+00
1.000000e+00
1.000000e+00
1.000000e+00
1.000000e+00
1.000000e+00
1.000000e+00
1.000000e+00
1.000000e+00
1.000000e+00
1.000000e+00
1.000000e+00
1.000000e+00
1.000000e+00
1.000000e+00
1.000000e+00
1.000000e+00
1.000000e+00
1.000000e+00
1.000000e+00
1.000000e+00
1.000000e+00
1.000000e+00
1.000000e+00
1.000000e+00
1.000000e+00
1.000000e+00
1.000000e+00
1.000000e+00
1.000000e+00
1.000000e+00
1.000000e+00
1.000000e+00
1.000000e+00
1.000000e+00
1.000000e+00
1.000000e+00
1.000000e+00
1.000000e+00
1.000000e+00
1.000000e+00
1.000000e+00
1.000000e+00
1.000000e+00
1.000000e+00
1.000000e+00
1.000000e+00
1.000000e+00
1.000000e+00
SCALARS area double 1
LOOKUP_TABLE default
1.688816e-06
1.667456e-06
1.646352e-06
1.623803e-06
1.601257e-06
1.578502e-06
1.557138e-06
1.535259e-06
1.513031e-06
1.491098e-06
1.469540e-06
1.448325e-06
1.427379e-06
1.408038e-06
1.390393e-06
1.374761e-06
1.361040e-06
1.348959e-06
1.338952e-06
1.331087e-06
1.325604e-06
1.322122e-06
1.320869e-06
1.321913e-06
1.325258e-06
1.330826e-06
1.338661e-06
1.348848e-06
1.361382e-06
1.376099e-06
1.393177e-06
1.412653e-06
1.434473e-06
1.458597e-06
1.484875e-06
1.513098e-06
1.543041e-06
1.574593e-06
1.607180e-06
1.641617e-06
1.677947e-06
1.715691e-06
1.754835e-06
1.793673e-06
1.834963e-06
1.877165e-06
1.920295e-06
1.963344e-06
4.463719e-06
4.225447e-06
3.995004e-06
3.771275e-06
3.558083e-06
3.354973e-06
3.163702e-06
2.982465e-06
2.812086e-06
2.653088e-06
2.505248e-06
2.368312e-06
2.241988e-06
2.127511e-06
2.024520e-06
1.933036e-06
1.852576e-06
1.782949e-06
1.724273e-06
1.676442e-06
1.639512e-06
1.613121e-06
1.597442e-06
1.592553e-06
1.598540e-06
1.615481e-06
1.643620e-06
1.683337e-06
1.735004e-06
1.798968e-06
1.875798e-06
1.966241e-06
2.071004e-06
2.191016e-06
2.326979e-06
2.479889e-06
2.650886e-06
2.841447e-06
3.052722e-06
3.287114e-06
3.546953e-06
3.834279e-06
4.152196e-06
4.501421e-06
4.888290e-06
5.315416e-06
5.787731e-06
6.308686e-06
5.051240e-06
5.007954e-06
4.907269e-06
4.760545e-06
4.584151e-06
4.385961e-06
4.175152e-06
3.956143e-06
3.735566e-06
3.518125e-06
3.306870e-06
3.104298e-06
2.912360e-06
2.734214e-06
2.570704e-06
2.422913e-06
2.291073e-06
2.175972e-06
2.078135e-06
1.997861e-06
1.935495e-06
1.891077e-06
1.865043e-06
1.857743e-06
1.869579e-06
1.901001e-06
1.952657e-06
2.025446e-06
2.120352e-06
2.238514e-06
2.381225e-06
2.550343e-06
2.747829e-06
2.976190e-06
3.237731e-06
3.535576e-06
3.873360e-06
4.255524e-06
4.686625e-06
5.172684e-06
5.720769e-06
6.338381e-06
7.035269e-06
7.818779e-06
8.703808e-06
9.703034e-06
1.083326e-05
1.211060e-05
2.284539e-06
3.070825e-06
3.621433e-06
3.979216e-06
4.188183e-06
4.278345e-06
4.277540e-06
4.206265e-06
4.084757e-06
3.928583e-06
3.749733e-06
3.558113e-06
3.361750e-06
3.168654e-06
2.983518e-06
2.810561e-06
2.652504e-06
2.512417e-06
2.392388e-06
2.294088e-06
2.218981e-06
2.168265e-06
2.143365e-06
2.145672e-06
2.176753e-06
2.238424e-06
2.332943e-06
2.463228e-06
2.632767e-06
2.845868e-06
3.107609e-06
3.424722e-06
3.805188e-06
4.258958e-06
4.797422e-06
5.434932e-06
6.188790e-06
7.079992e-06
8.133188e-06
9.378173e-06
1.085096e-05
1.259378e-05
1.465768e-05
1.709917e-05
1.999056e-05
2.341345e-05
2.746531e-05
3.225680e-05
1.928748e-05
1.691374e-05
1.485815e-05
1.307952e-05
1.153232e-05
1.018801e-05
9.018119e-06
8.000945e-06
7.113876e-06
6.339949e-06
5.665557e-06
5.078668e-06
4.568972e-06
4.126015e-06
3.743351e-06
3.414654e-06
3.135323e-06
2.899961e-06
2.705502e-06
2.549277e-06
2.429246e-06
2.343770e-06
2.292037e-06
2.273860e-06
2.289544e-06
2.339970e-06
2.426746e-06
2.552324e-06
2.719897e-06
2.933524e-06
3.198854e-06
3.522563e-06
3.913051e-06
4.380169e-06
4.937003e-06
5.598751e-06
6.383666e-06
7.313346e-06
8.414274e-06
9.718291e-06
1.126259e-05
1.309197e-05
1.525780e-05
1.782642e-05
2.086916e-05
2.447357e-05
2.873958e-05
3.378884e-05
1.163092e-05
1.040975e-05
9.332060e-06
8.383617e-06
7.539653e-06
6.791767e-06
6.127973e-06
5.540637e-06
5.018218e-06
4.553715e-06
4.142057e-06
3.778258e-06
3.457866e-06
3.175059e-06
2.927667e-06
2.712734e-06
2.528575e-06
2.371675e-06
2.240869e-06
2.134884e-06
2.052753e-06
1.993458e-06
1.956588e-06
1.942040e-06
1.949858e-06
1.980308e-06
2.034042e-06
2.112044e-06
2.215539e-06
2.345939e-06
2.505815e-06
2.697610e-06
2.924541e-06
3.189899e-06
3.499107e-06
3.857638e-06
4.271902e-06
4.749051e-06
5.298264e-06
5.930921e-06
6.659034e-06
7.497421e-06
8.461283e-06
9.575745e-06
1.086163e-05
1.234721e-05
1.406216e-05
1.604737e-05
6.690276e-06
6.092587e-06
5.559288e-06
5.087259e-06
4.659125e-06
4.275181e-06
3.930351e-06
3.622943e-06
3.345740e-06
3.096062e-06
2.872675e-06
2.673752e-06
2.497498e-06
2.340125e-06
2.201590e-06
2.080573e-06
1.976906e-06
1.887853e-06
1.813276e-06
1.752643e-06
1.705585e-06
1.671397e-06
1.649914e-06
1.641134e-06
1.645016e-06
1.661573e-06
1.691075e-06
1.733864e-06
1.790323e-06
1.860711e-06
1.946419e-06
2.048130e-06
2.166988e-06
2.303663e-06
2.460724e-06
2.639947e-06
2.843320e-06
3.072679e-06
3.330960e-06
3.622523e-06
3.950491e-06
4.319264e-06
4.731424e-06
5.198533e-06
5.724398e-06
6.317317e-06
6.983335e-06
7.737049e-06
1.969718e-06
1.935762e-06
1.899873e-06
1.867733e-06
1.827418e-06
1.786300e-06
1.744865e-06
1.706236e-06
1.666581e-06
1.626779e-06
1.588813e-06
1.553510e-06
1.521320e-06
1.490161e-06
1.461862e-06
1.436533e-06
1.415368e-06
1.396284e-06
1.380092e-06
1.366944e-06
1.357048e-06
1.350009e-06
1.345946e-06
1.345019e-06
1.347209e-06
1.352422e-06
1.360745e-06
1.372150e-06
1.386529e-06
1.403436e-06
1.423650e-06
1.446823e-06
1.472936e-06
1.501178e-06
1.532669e-06
1.567226e-06
1.604561e-06
1.643824e-06
1.684902e-06
1.729006e-06
1.775064e-06
1.822692e-06
1.868635e-06
1.918896e-06
1.969895e-06
2.021318e-06
2.069029e-06
2.117055e-06
